<?xml version="1.0" encoding="utf-8"?>
<!-- Generator: Adobe Illustrator 19.2.1, SVG Export Plug-In . SVG Version: 6.00 Build 0)  -->
<svg version="1.1" id="Layer_1" xmlns="http://www.w3.org/2000/svg" xmlns:xlink="http://www.w3.org/1999/xlink" x="0px" y="0px"
	 viewBox="0 0 246.9 34.1" enable-background="new 0 0 246.9 34.1" xml:space="preserve">
<path fill="#58595B" d="M0.8,12.3h3.8l2.1-5.4h3.1l-1.3,5.4h5.7l-0.3,2.1H8.1l-3.6,15l0.1,0.1c2.4-0.9,5.1-3.4,6.3-5.1l0.9,0.4
	c-1.5,3.4-6.6,8.5-9.5,8.5c-1.7,0-2.7-1.7-2.1-4l3.7-14.8H0.5L0.8,12.3z"/>
<path fill="#58595B" d="M20.4,21.2h0.2c2.8-4.5,6.6-9.9,10.8-9.9c2.1,0,3,1.2,2.1,4.8l-3.4,13.6h0.1c1.8-0.6,3.5-2.4,4.6-4.1
	l0.9,0.4c-1.2,3.4-5.1,7.2-7.4,7.2c-2,0-2.9-1.6-2.1-4.6l3.2-12.1c0.3-1.1,0.1-1.8-0.7-1.8c-3.3,0-9.4,10.4-10.4,15.8l-0.4,1.8
	l-3.7,1l-0.7-0.6l7.1-29.2l-2.7-1.1l0.3-1L25.5,0L20.4,21.2z"/>
<path fill="#58595B" d="M38.3,14.5v-0.4c0,0,2.8-2.8,5.7-2.8c1.8,0,2.6,1.4,1.8,4.7l-3.2,13.7h0.1c1.8-0.6,3.5-2.4,4.6-4.1l0.9,0.4
	c-1.2,3.4-5.1,7.2-7.5,7.2c-2,0-2.8-1.6-2.1-4.6l3.3-13.3L38.3,14.5z M46.2,0.4c1.4,0,2.6,1.2,2.6,2.6s-1.1,2.6-2.6,2.6
	c-1.4,0-2.6-1.2-2.6-2.6S44.8,0.4,46.2,0.4z"/>
<path fill="#58595B" d="M54.4,33.4c-2.7,0-4.8-1.7-4.8-3.3c0-1.4,0.7-2.3,1-2.7h0.1c2.5,1.9,4.6,3.4,6.4,3.4c1.1,0,1.9-0.7,1.9-1.9
	s-0.7-2.3-1.4-3.2l-2.3-2.8c-1.8-2.2-2.5-3.3-2.5-4.7c0-3.8,5.1-7,8.1-7c2,0,3.9,1.1,3.9,2.5c0,1.3-0.6,2.4-1,2.9h-0.1
	C61.9,15.3,60,14,58.2,14c-1.1,0-1.9,0.6-1.9,1.8c0,1.1,0.4,1.8,1.3,3l2.6,3.1c1.7,2.1,2.3,3.1,2.3,4.6
	C62.6,29.6,58.5,33.4,54.4,33.4z"/>
<path fill="#58595B" d="M68,12.3h3.8l2.1-5.4H77l-1.3,5.4h5.7l-0.3,2.1h-5.8l-3.5,14.9l0.1,0.1c2.4-0.9,5.1-3.4,6.3-5.1l0.9,0.5
	c-1.5,3.4-6.6,8.5-9.5,8.5c-1.7,0-2.7-1.7-2.1-4l3.6-14.9h-3.5L68,12.3z"/>
<path fill="#58595B" d="M84.2,33.2c-2,0-2.8-1.6-2.1-4.6l6.2-25.1l-2.7-1.1l0.3-1L93.2,0l-7.1,29.7h0.1c1.8-0.6,3.5-2.4,4.6-4.1
	l0.9,0.4C90.6,29.4,86.7,33.2,84.2,33.2z"/>
<path fill="#58595B" d="M93.8,26.8c0-5.7,2.9-10.2,6.6-12.9c1.9-1.4,4.3-2.6,6.3-2.6c2.6,0,3.8,1.2,3.8,3.2c0,4.1-5.9,7.4-12.1,8.3
	c-0.1,0.8-0.2,1.5-0.2,2.3c0,3.2,1,5,3,5c2.1,0,4.4-1.9,5.6-3.5l0.9,0.6c-0.9,1.9-4.1,6.1-8.4,6.1C95.4,33.2,93.8,30.1,93.8,26.8z
	 M98.7,21.4c3.6-0.7,7.8-4.1,7.8-7c0-0.8-0.4-1.3-1.1-1.3C103.2,13.1,99.9,16.8,98.7,21.4z"/>
<path fill="#58595B" d="M118.5,24.9c1.6,3.1,4.9,5,9,5c7.7,0,13.3-7.1,14.4-16.4c-1.4-0.9-2.6-1.7-4.2-1.7c-1.9,0-2.7,1.5-2.7,2.7
	c0,1.9,1.7,2.8,2.8,3.6c-0.9,1.1-1.6,2-2.9,2c-0.7,0-2.2-0.4-2.2-3.6c0-2.9,2.7-8.2,7.8-8.1c2,0.1,3.5,1.1,4.9,2
	c3.5,2.3,4.3,2.8,5.4,2.8c0.9,0,1.3-0.6,1.3-1.8c0-1.5-0.6-3.4-1.3-4.6c0.6-0.4,1.2-0.5,1.8-0.5c1.8,0,2.5,1.5,2.5,2.7
	c0,4-3.6,7.5-7,7.4c-1.7,0-3-0.9-4.8-2c-1.1,11.5-7.7,19.7-17.2,19.7c-7.6,0-12-4.7-12-11.5c0-7.4,5.2-14,10.4-14c1,0,2,0.4,3,1.3
	c4.9-7,5.6-8.5,5.6-8.5h0.7l1.4,1.4L118.5,24.9z M117.8,23.2l6.9-9c0.3-1.1-0.4-2.8-2.2-2.8c-2.1,0-5.1,2.3-5.1,8.3
	C117.4,21,117.5,22.2,117.8,23.2z"/>
<path fill="#58595B" d="M187,14.5v-0.4c0,0,2.8-2.8,5.7-2.8c1.8,0,2.6,1.4,1.8,4.7l-3.2,13.7h0.1c1.8-0.6,3.5-2.4,4.6-4.1l0.9,0.4
	c-1.2,3.4-5.1,7.2-7.5,7.2c-2,0-2.8-1.6-2.1-4.6l3.3-13.3L187,14.5z M194.9,0.4c1.4,0,2.6,1.2,2.6,2.6s-1.1,2.6-2.6,2.6
	c-1.4,0-2.6-1.2-2.6-2.6S193.5,0.4,194.9,0.4z"/>
<path fill="#58595B" d="M203.5,15.2l-3.7-0.7v-0.4c0,0,2.8-2.8,5.3-2.8s2.9,2,1.9,5.4l-1.3,4.2h0.2c2.9-4.4,6.6-9.6,10.8-9.6
	c2.1,0,3.1,1.2,2.1,4.8l-3.5,13.6h0.1c1.9-0.6,3.5-2.4,4.6-4.1l0.9,0.4c-1.2,3.5-5.2,7.2-7.5,7.2c-2.1,0-2.9-1.6-2.1-4.6l3.2-12.1
	c0.3-1.1,0.2-1.8-0.7-1.8c-3.5,0-9,9.7-10.4,15.8l-0.4,1.8l-3.7,1l-0.7-0.6L203.5,15.2z"/>
<path fill="#58595B" d="M239.9,12.3l2.1-8.8l-2.7-1.1l0.3-1l7.3-1.4l-7.2,29.7h0.1c1.9-0.6,3.5-2.4,4.6-4.1l0.9,0.4
	c-1.2,3.4-5.1,7.2-7.5,7.2c-2.1,0-2.8-1.5-1.9-5l1.1-3.9h-0.2c-2,2.6-5.3,9-9.4,9c-2.5,0-4.2-1.7-4.2-5.3c0-7.3,5.9-16.8,13-16.8
	C237.7,11.3,239,11.8,239.9,12.3z M239.2,15.3c-0.7-1.3-2.1-2.5-3.3-2.5c-4,0-7.8,8.6-7.8,13.8c0,2.6,0.7,3.2,1.6,3.2
	c2.6,0,7.9-8,9.2-13L239.2,15.3z"/>
<path fill="#58595B" d="M182.1,16.2C182.1,16.2,182.5,13.2,182.1,16.2c-0.3,2,1,1.6,2,0.9c0.8-0.6,1.2-1.4,1.3-2.4
	c0-0.1,0-0.2,0-0.4c0-2.6-1.4-3.9-3.5-3.9c-1.4,0-3,0.9-4.9,2.7v0.7c0.5-0.2,1.3-0.4,1.9-0.4c0.2,0,0.3,0,0.5,0
	C181,13.6,182.1,14.5,182.1,16.2z"/>
<path fill="#58595B" d="M173.4,32.4c0.4-1.3,1-3.1,1.6-4.8l-0.3-13.1c0-2.9-1.3-4-3.4-4c-1.4,0-3,0.8-4.9,2.7v0.7
	c0.6-0.2,1.5-0.3,2.1-0.3c1.1,0,2.1,0.4,2.5,1.1l0.1,5.9c-0.2,0.3-2.8,4-6,7.5h-0.2l-0.2-13.5c0-2.9-1.3-4.1-3.2-4.1
	c-1.6,0-3.1,0.8-4.9,2.7v0.7c0.6-0.2,1.4-0.3,1.9-0.3c0.9,0,1.8,0.4,2.2,0.9l0.4,17.3l1.7,0.7h0.4l2.4-2.7c2.4-2.7,4.1-4.9,5.7-6.8
	h0.1l0.1,8.8l1.5,0.7L173.4,32.4L173.4,32.4z"/>
</svg>
